<svg width="32" height="32" viewBox="0 0 32 32" fill="none" xmlns="http://www.w3.org/2000/svg">
<rect width="32" height="32" fill="#005D94"/>
<path d="M10.9031 8.34692H21.3156C21.651 8.34692 21.9427 8.47088 22.1906 8.7188C22.4385 8.96672 22.5625 9.25838 22.5625 9.5938V9.65942C22.5625 9.99484 22.4385 10.2865 22.1906 10.5344C21.9427 10.7823 21.651 10.9063 21.3156 10.9063H10.9031C10.5677 10.9063 10.276 10.7823 10.0281 10.5344C9.78021 10.2865 9.65625 9.99484 9.65625 9.65942V9.5938C9.65625 9.25838 9.78021 8.96672 10.0281 8.7188C10.276 8.47088 10.5677 8.34692 10.9031 8.34692ZM16.0656 25.2782C13.4552 25.2782 11.4062 24.8407 9.91875 23.9657C8.43125 23.0907 7.6875 21.924 7.6875 20.4657C7.6875 19.1094 8.52604 17.5417 10.2031 15.7625C10.4365 15.5 10.7354 15.3615 11.1 15.3469C11.4646 15.3178 11.7854 15.4126 12.0625 15.6313L12.2156 15.7407C12.4781 15.9303 12.6167 16.1928 12.6313 16.5282C12.6604 16.8636 12.5656 17.148 12.3469 17.3813C11.2385 18.5626 10.6844 19.4886 10.6844 20.1594C10.6844 20.9178 11.151 21.523 12.0844 21.9751C13.0177 22.4271 14.3448 22.6532 16.0656 22.6532C17.8885 22.6532 19.9156 22.4126 22.1469 21.9313C22.4823 21.8584 22.7885 21.9167 23.0656 22.1063C23.3573 22.2813 23.5323 22.5292 23.5906 22.8501L23.6344 23.0251C23.7073 23.3605 23.649 23.6813 23.4594 23.9875C23.2844 24.2792 23.0292 24.4615 22.6938 24.5344C20.2875 25.0303 18.0781 25.2782 16.0656 25.2782Z" fill="white"/>
</svg>
